<svg id="surface1" xmlns="http://www.w3.org/2000/svg" width="166.909" height="196" viewBox="0 0 166.909 196">
  <g id="Group_7" data-name="Group 7" transform="translate(0 0)">
    <path id="Path_1" data-name="Path 1" d="M159.038,130.888a98.885,98.885,0,0,1-23.684,36.9c-11.892,11.613-27.465,20.841-46.286,27.424a14.16,14.16,0,0,1-4.5.794H84.4a14.361,14.361,0,0,1-2.76-.272,14.955,14.955,0,0,1-1.9-.517C60.9,188.639,45.309,179.416,33.4,167.8A98.7,98.7,0,0,1,9.725,130.915C.159,104.955.7,76.358,1.141,53.378l.007-.353c.088-1.9.145-3.891.176-6.092A20.773,20.773,0,0,1,20.886,26.582c22.535-1.258,39.968-8.607,54.863-23.126l.13-.12a12.555,12.555,0,0,1,17.045,0l.127.12c14.9,14.518,32.332,21.868,54.867,23.126a20.773,20.773,0,0,1,19.561,20.351c.031,2.216.088,4.206.176,6.092l0,.149C168.1,76.2,168.639,104.852,159.038,130.888Zm0,0" transform="translate(-0.946 0)" fill="#00dd80"/>
    <path id="Path_2" data-name="Path 2" d="M488.407,130.893a98.886,98.886,0,0,1-23.68,36.9c-11.891,11.613-27.461,20.841-46.279,27.424a14.155,14.155,0,0,1-4.5.794V.007A12.571,12.571,0,0,1,422.3,3.342l.127.12c14.9,14.518,32.326,21.868,54.858,23.126a20.772,20.772,0,0,1,19.557,20.351c.031,2.216.088,4.206.176,6.092l0,.149C497.464,76.2,498.005,104.858,488.407,130.893Zm0,0" transform="translate(-330.313 -0.006)" fill="#00aa63"/>
  </g>
  <path id="Path_3" data-name="Path 3" d="M269.555,291.593a48.907,48.907,0,0,1-48.681,48.841H220.7a48.841,48.841,0,1,1,0-97.681h.172A48.907,48.907,0,0,1,269.555,291.593Zm0,0" transform="translate(-137.249 -193.593)" fill="#fff"/>
  <path id="Path_4" data-name="Path 4" d="M462.619,291.593a48.9,48.9,0,0,1-48.668,48.841V242.753A48.9,48.9,0,0,1,462.619,291.593Zm0,0" transform="translate(-330.32 -193.593)" fill="#e1ebf0"/>
  <path id="Path_5" data-name="Path 5" d="M338.28,410.59l-22,22-4.753,4.753a5.756,5.756,0,0,1-8.135,0l-10.219-10.224a5.749,5.749,0,0,1,8.13-8.131l6.157,6.157L330.15,402.46a5.749,5.749,0,0,1,8.13,8.13Zm0,0" transform="translate(-232.659 -319.623)" fill="rgba(15,20,47,0.5)"/>
  <path id="Path_6" data-name="Path 6" d="M435.947,410.59l-22,22V416.324l13.866-13.864a5.749,5.749,0,1,1,8.13,8.13Zm0,0" transform="translate(-330.324 -319.624)" fill="#0f142f"/>
</svg>
