<svg xmlns="http://www.w3.org/2000/svg" width="24" height="24" viewBox="0 0 24 24">
  <g id="ic_cancel" data-name="ic cancel" opacity="0.75">
    <path id="Path_44" data-name="Path 44" d="M133.416,132l2.293-2.293a1,1,0,0,0-1.414-1.414L132,130.588l-2.293-2.293a1,1,0,0,0-1.414,1.414L130.588,132l-2.293,2.293a1,1,0,1,0,1.414,1.414L132,133.416l2.293,2.293a1,1,0,0,0,1.414-1.414Z" transform="translate(-120.002 -120.002)" fill="#0f142f"/>
    <path id="Path_43" data-name="Path 43" d="M23,11a1,1,0,0,0-1,1,10,10,0,1,1-2.9-7.046,1,1,0,1,0,1.419-1.409A12,12,0,1,0,24,12,1,1,0,0,0,23,11Z" fill="#0f142f"/>
  </g>
</svg>
