<svg xmlns="http://www.w3.org/2000/svg" width="20.959" height="24" viewBox="0 0 20.959 24">
  <g id="ic_connected" data-name="ic connected" transform="translate(-59.93 0.001)">
    <path id="Path_21" data-name="Path 21" d="M80.333,4.336,70.743.079a.935.935,0,0,0-.762,0l-9.5,4.257a.936.936,0,0,0-.553.854v7.392a12.051,12.051,0,0,0,3.029,7.835A10.942,10.942,0,0,0,66.277,23,9.177,9.177,0,0,0,70.41,24a9.486,9.486,0,0,0,5.6-1.863.936.936,0,0,0-1.1-1.513,7.627,7.627,0,0,1-4.5,1.505c-4.505,0-8.608-4.549-8.608-9.544V5.8l8.563-3.839L79.018,5.8v6.783a9.906,9.906,0,0,1-1.431,5.042.936.936,0,0,0,1.609.956,11.777,11.777,0,0,0,1.694-6V5.192A.936.936,0,0,0,80.333,4.336Z" fill="#2d50a7"/>
    <path id="Path_22" data-name="Path 22" d="M254.258,297.182l-4.565,6.524a.521.521,0,0,1-.761.041l-2.951-2.946a.911.911,0,0,0-1.31.016.963.963,0,0,0,.016,1.34l2.956,2.951.008.008a2.359,2.359,0,0,0,1.643.672c.052,0,.1,0,.157-.005a2.371,2.371,0,0,0,1.7-.9l.031-.042,4.584-6.55a.962.962,0,0,0-.214-1.322A.913.913,0,0,0,254.258,297.182Z" transform="translate(-179.738 -289.313)" fill="#c4d9fd"/>
  </g>
</svg>
