<svg id="ic_download" data-name="ic download" xmlns="http://www.w3.org/2000/svg" width="24" height="23.994" viewBox="0 0 24 23.994">
  <path id="Path_23" data-name="Path 23" d="M22.178,8a6.474,6.474,0,0,0,.113-1.2,6.873,6.873,0,0,0-13.3-2.294A3.447,3.447,0,0,0,4.532,6.4a3.336,3.336,0,0,0-.148.461,5.06,5.06,0,0,0,.763,10.074H9.433a.844.844,0,1,0,0-1.688H5.147a3.377,3.377,0,1,1,0-6.753A.851.851,0,0,0,6,7.645,1.7,1.7,0,0,1,7.721,5.96a1.728,1.728,0,0,1,1.2.483.867.867,0,0,0,1.212-.009.84.84,0,0,0,.236-.457,5.13,5.13,0,0,1,5.911-4.162A5.069,5.069,0,0,1,20.5,7.636a4.993,4.993,0,0,1-.108.488.838.838,0,0,0,.354.929,3.345,3.345,0,0,1,.961,4.681,3.443,3.443,0,0,1-2.849,1.51H16.291a.844.844,0,1,0,0,1.688h2.572A5.1,5.1,0,0,0,24,11.861,5.034,5.034,0,0,0,22.178,8Z" transform="translate(-0.001 -0.056)" fill="#2d50a7"/>
  <path id="Path_24" data-name="Path 24" d="M164.251,164.429a.89.89,0,0,0-1.236,0l-2.932,2.93V154.381a.89.89,0,0,0-1.78,0v12.978l-2.93-2.93a.89.89,0,0,0-1.258,1.258l4.449,4.449a.89.89,0,0,0,1.258,0l0,0,4.449-4.449A.89.89,0,0,0,164.251,164.429Z" transform="translate(-146.356 -146.403)" fill="#c4d9fd"/>
</svg>
