<svg xmlns="http://www.w3.org/2000/svg" width="24" height="24" viewBox="0 0 24 24">
  <path id="ic_share" data-name="ic share" d="M19.969,15.937a4.025,4.025,0,0,0-3.1,1.459l-3.137-1.56a.937.937,0,1,0-.835,1.679l3.142,1.562a4.031,4.031,0,1,0,3.932-3.14Zm0,6.187a2.156,2.156,0,0,1-1.989-2.988.947.947,0,0,0,.114-.231,2.156,2.156,0,1,1,1.876,3.219ZM9.472,13.7l-1.518-.772a4.048,4.048,0,0,0,0-1.844l8.918-4.472a4.012,4.012,0,1,0-.836-1.678L7.117,9.409a4.031,4.031,0,1,0-.01,5.193l1.514.77a.938.938,0,0,0,.85-1.671Zm10.5-11.826a2.156,2.156,0,1,1-2.156,2.156A2.159,2.159,0,0,1,19.969,1.875ZM4.031,14.156A2.156,2.156,0,1,1,6.187,12,2.159,2.159,0,0,1,4.031,14.156Z" fill="#fff"/>
</svg>
