<svg xmlns="http://www.w3.org/2000/svg" width="24.75" height="24.75" viewBox="0 0 24.75 24.75">
  <g id="Group_24" data-name="Group 24" transform="translate(0.375 0.375)">
    <path id="Path_84" data-name="Path 84" d="M417.436,132.632a.473.473,0,0,0-.138.654,9.227,9.227,0,0,1,1.446,5.27.473.473,0,0,0,.462.483h.011a.473.473,0,0,0,.473-.462,10.169,10.169,0,0,0-1.6-5.807.473.473,0,0,0-.654-.138Z" transform="translate(-397.821 -126.329)" fill="#fff" stroke="#fff" stroke-width="0.25"/>
    <path id="Path_85" data-name="Path 85" d="M20.487,20.483a12,12,0,0,0,0-16.969h0a12,12,0,0,0-16.967,0h0a12,12,0,0,0,0,16.969h0a12,12,0,0,0,16.971,0h0Zm-.345-1.008-3.412-3.412a6.227,6.227,0,0,0,0-8.129l3.412-3.412a11.037,11.037,0,0,1,0,14.952ZM6.7,12A5.3,5.3,0,1,1,12,17.3,5.3,5.3,0,0,1,6.7,12ZM19.475,3.858,16.063,7.269a6.227,6.227,0,0,0-8.126,0L4.525,3.858a11.037,11.037,0,0,1,14.95,0ZM3.859,4.523,7.271,7.935a6.227,6.227,0,0,0,0,8.129L3.858,19.475a11.038,11.038,0,0,1,0-14.952Zm.664,15.617,3.412-3.412a6.227,6.227,0,0,0,8.131,0l3.412,3.412a11.037,11.037,0,0,1-14.954,0Z" fill="#fff" stroke="#fff" stroke-width="0.75"/>
    <path id="Path_86" data-name="Path 86" d="M447.427,284.339a.473.473,0,1,0-.436.654A.476.476,0,0,0,447.427,284.339Z" transform="translate(-425.733 -270.685)" fill="#fff" stroke="#fff" stroke-width="0.25"/>
  </g>
</svg>
