<svg xmlns="http://www.w3.org/2000/svg" width="76.879" height="89.033" viewBox="0 0 76.879 89.033">
  <path id="ic_logo" data-name="ic logo" d="M70.875,89.033c-5.215,0-10.316-2.228-15.161-4.649A40.137,40.137,0,0,1,43.546,74.9a44.2,44.2,0,0,1-11.11-28.738V19.048a3.432,3.432,0,0,1,2.028-3.132L69.3.3A3.433,3.433,0,0,1,72.1.3l35.179,15.616a3.432,3.432,0,0,1,2.04,3.137V46.161a43.2,43.2,0,0,1-6.214,22,3.432,3.432,0,0,1-5.9-3.507,36.335,36.335,0,0,0,5.251-18.5V21.28L70.711,7.19,39.3,21.271V46.161c0,18.322,15.05,35.007,31.575,35.007a27.975,27.975,0,0,0,16.514-5.521,3.432,3.432,0,0,1,4.039,5.55C85.284,85.669,78.178,89.033,70.875,89.033ZM68.292,60.2a8.847,8.847,0,0,0,6.292-3.277q.06-.074.115-.152L91.685,33.049a3.432,3.432,0,1,0-5.581-4L69.186,52.683a1.961,1.961,0,0,1-2.821.147L55.432,42.161a3.432,3.432,0,1,0-4.794,4.913L61.59,57.761l.031.03a8.849,8.849,0,0,0,6.089,2.432C67.9,60.223,68.1,60.217,68.292,60.2Z" transform="translate(-32.436 0)" fill="#0f142f"/>
</svg>
