<svg xmlns="http://www.w3.org/2000/svg" width="24.258" height="24.25" viewBox="0 0 24.258 24.25">
  <path id="ic_about_us" data-name="ic about us" d="M1.021,14.3a.95.95,0,0,0,.116-.007.937.937,0,0,0,.816-1.045q-.019-.155-.033-.312H3.236a.938.938,0,1,0,0-1.875H1.92a10.064,10.064,0,0,1,1.814-4.9,18.543,18.543,0,0,0,2.512.669A21.737,21.737,0,0,0,5.775,10.9a.937.937,0,0,0,.914.96h.024a.938.938,0,0,0,.937-.914A19.735,19.735,0,0,1,8.1,7.126c.949.117,1.944.192,2.963.221v1.56a.938.938,0,1,0,1.875,0V7.346c1.032-.029,2.041-.105,3-.226a19.5,19.5,0,0,1,.461,3.87.938.938,0,0,0,.937.916h.022a.937.937,0,0,0,.915-.959,21.444,21.444,0,0,0-.482-4.124,18.393,18.393,0,0,0,2.475-.661,10.065,10.065,0,0,1,1.814,4.9h-1.55a.938.938,0,1,0,0,1.875h1.551q-.014.156-.033.312a.937.937,0,0,0,.816,1.045.948.948,0,0,0,.116.007.938.938,0,0,0,.929-.823A12.158,12.158,0,0,0,24,12,12,12,0,0,0,3.516,3.515,11.921,11.921,0,0,0,0,12a12.157,12.157,0,0,0,.09,1.478.938.938,0,0,0,.929.823ZM5.074,4.623A10.168,10.168,0,0,1,7.767,2.8q-.151.247-.293.514a12.01,12.01,0,0,0-.726,1.7c-.593-.113-1.154-.246-1.674-.4Zm3.564.68a5.541,5.541,0,0,1,2.426-3.214V5.471C10.23,5.446,9.417,5.39,8.638,5.3Zm4.3.168V2.09A4.849,4.849,0,0,1,14.9,4.211,9.789,9.789,0,0,1,15.393,5.3c-.788.089-1.612.146-2.455.171Zm3.618-2.14q-.142-.267-.294-.513a10.158,10.158,0,0,1,2.665,1.806c-.511.149-1.062.28-1.644.392a12.016,12.016,0,0,0-.727-1.684Zm5.282,15.8a2.953,2.953,0,1,0-4.772,0l-.045.026a6.326,6.326,0,0,0-2.319-1.86,3.516,3.516,0,1,0-5.4,0,6.327,6.327,0,0,0-2.319,1.86l-.044-.027a2.953,2.953,0,1,0-4.772,0A4.6,4.6,0,0,0,.034,22.123,1.558,1.558,0,0,0,1.557,24H16.381l.053,0,.029,0h5.982a1.558,1.558,0,0,0,1.523-1.877,4.6,4.6,0,0,0-2.129-2.993Zm-2.385-2.817a1.078,1.078,0,1,1-1.078,1.078A1.079,1.079,0,0,1,19.454,16.313ZM10.36,15.047A1.641,1.641,0,1,1,12,16.688,1.643,1.643,0,0,1,10.36,15.047ZM12,18.562a4.5,4.5,0,0,1,4.385,3.555l-.009.008H7.614A4.5,4.5,0,0,1,12,18.562Zm-7.453-2.25A1.078,1.078,0,1,1,3.47,17.391,1.079,1.079,0,0,1,4.548,16.313Zm-.025,4.031h.049a2.7,2.7,0,0,1,1.487.446,6.3,6.3,0,0,0-.284.968,1.894,1.894,0,0,0-.039.367H1.978a2.724,2.724,0,0,1,2.545-1.781Zm13.741,1.781a1.844,1.844,0,0,0-.038-.379c-.005-.025-.012-.05-.019-.074a6.3,6.3,0,0,0-.265-.883,2.7,2.7,0,0,1,1.486-.446h.049a2.724,2.724,0,0,1,2.545,1.781Zm0,0" transform="translate(0.128 0.125)" fill="#fff" stroke="#00aa63" stroke-width="0.25"/>
</svg>
