<svg xmlns="http://www.w3.org/2000/svg" width="22" height="24" viewBox="0 0 22 24">
  <g id="ic_disconnect" transform="translate(-180 -573)" opacity="0.75">
    <path id="Path_105" data-name="Path 105" d="M133.416,132l2.293-2.293a1,1,0,0,0-1.414-1.414L132,130.588l-2.293-2.293a1,1,0,0,0-1.414,1.414L130.588,132l-2.293,2.293a1,1,0,1,0,1.414,1.414L132,133.416l2.293,2.293a1,1,0,0,0,1.414-1.414Z" transform="translate(58.998 452.998)" fill="red"/>
    <path id="shield_5_" data-name="shield (5)" d="M43.436,24a10.024,10.024,0,0,1-4.338-.995,11.429,11.429,0,0,1-3.482-2.586,11.734,11.734,0,0,1-3.179-7.835V5.193a.935.935,0,0,1,.58-.854L42.985.082a1.027,1.027,0,0,1,.8,0L53.852,4.338a.935.935,0,0,1,.584.855v7.392a11.363,11.363,0,0,1-1.778,6,1.01,1.01,0,0,1-1.346.326.911.911,0,0,1-.343-1.282,9.558,9.558,0,0,0,1.5-5.042V5.8L43.389,1.96,34.4,5.8v6.786c0,4.995,4.307,9.544,9.036,9.544a8.271,8.271,0,0,0,4.726-1.505,1.014,1.014,0,0,1,1.372.206.907.907,0,0,1-.216,1.307A10.289,10.289,0,0,1,43.436,24Z" transform="translate(147.564 573)" fill="red"/>
  </g>
</svg>
