<svg xmlns="http://www.w3.org/2000/svg" width="20.96" height="24" viewBox="0 0 20.96 24">
  <g id="ic_disconnect" transform="translate(-180 -573)" opacity="0.75">
    <path id="Path_105" data-name="Path 105" d="M133.416,132l2.293-2.293a1,1,0,0,0-1.414-1.414L132,130.588l-2.293-2.293a1,1,0,0,0-1.414,1.414L130.588,132l-2.293,2.293a1,1,0,1,0,1.414,1.414L132,133.416l2.293,2.293a1,1,0,0,0,1.414-1.414Z" transform="translate(58.478 452.998)" fill="#c4d9fd"/>
    <path id="shield_5_" data-name="shield (5)" d="M42.916,24a9.178,9.178,0,0,1-4.133-.995,10.943,10.943,0,0,1-3.318-2.586,12.05,12.05,0,0,1-3.029-7.835V5.193a.936.936,0,0,1,.553-.854l9.5-4.257a.936.936,0,0,1,.762,0L52.84,4.338a.936.936,0,0,1,.556.855v7.392a11.777,11.777,0,0,1-1.694,6,.936.936,0,0,1-1.609-.956,9.9,9.9,0,0,0,1.431-5.042V5.8L42.871,1.96,34.307,5.8v6.786c0,4.995,4.1,9.544,8.609,9.544a7.627,7.627,0,0,0,4.5-1.505.936.936,0,1,1,1.1,1.513A9.486,9.486,0,0,1,42.916,24Z" transform="translate(147.564 573)" fill="#2d50a7"/>
  </g>
</svg>
