<svg xmlns="http://www.w3.org/2000/svg" width="24" height="23.107" viewBox="0 0 24 23.107">
  <path id="ic_rate_us" data-name="ic rate us" d="M6.184,32.634a2.577,2.577,0,0,1-1.519-.5,2.546,2.546,0,0,1-.939-2.889l1.482-4.561a.708.708,0,0,0-.258-.793l-3.88-2.819a2.6,2.6,0,0,1,1.519-4.7h4.8a.688.688,0,0,0,.675-.466l1.481-4.589a2.584,2.584,0,0,1,4.916,0L15.941,15.9a.688.688,0,0,0,.674.465h4.8a2.6,2.6,0,0,1,1.519,4.7l-2.645,1.922a.937.937,0,0,1-1.1-1.517l2.645-1.922a.7.7,0,0,0,.256-.81.693.693,0,0,0-.673-.5h-4.8a2.566,2.566,0,0,1-2.458-1.762L12.675,11.89a.71.71,0,0,0-1.349,0L9.844,16.481a2.567,2.567,0,0,1-2.458,1.763H2.59a.693.693,0,0,0-.673.5.7.7,0,0,0,.256.81l3.88,2.819a2.578,2.578,0,0,1,.939,2.889L5.509,29.821a.71.71,0,0,0,1.092.793l3.88-2.819a2.578,2.578,0,0,1,3.038,0l3.88,2.819a.71.71,0,0,0,1.092-.793L17.476,26.7a.937.937,0,1,1,1.783-.579l1.014,3.122A2.584,2.584,0,0,1,16.3,32.131l-3.88-2.819a.708.708,0,0,0-.834,0L7.7,32.131A2.577,2.577,0,0,1,6.184,32.634Z" transform="translate(0 -9.527)" fill="#fff"/>
</svg>
