<svg id="ic_power_icon" data-name="ic power icon" xmlns="http://www.w3.org/2000/svg" width="179.266" height="179.266" viewBox="0 0 179.266 179.266">
  <g id="circle" fill="#0f142f">
    <path d="M 89.6328125 177.765625 C 83.65212249755859 177.765625 77.67564392089844 177.1631927490234 71.869384765625 175.9750518798828 C 66.21145629882812 174.8172607421875 60.64612197875977 173.0896911621094 55.3280029296875 170.84033203125 C 50.10609817504883 168.6316528320312 45.06945419311523 165.8978424072266 40.35795593261719 162.7148132324219 C 35.69086074829102 159.561767578125 31.30207443237305 155.9406890869141 27.31350326538086 151.9521179199219 C 23.32493209838867 147.9635467529297 19.70385932922363 143.5747680664062 16.55081176757812 138.9076690673828 C 13.36778831481934 134.1961669921875 10.63397884368896 129.1595306396484 8.425289154052734 123.9376220703125 C 6.175931453704834 118.619499206543 4.448359966278076 113.0541687011719 3.290574312210083 107.396240234375 C 2.102431535720825 101.5899810791016 1.500002980232239 95.61350250244141 1.500002980232239 89.6328125 C 1.500002980232239 83.65212249755859 2.102431535720825 77.67564392089844 3.290574312210083 71.869384765625 C 4.448359966278076 66.21145629882812 6.175931453704834 60.64612197875977 8.425289154052734 55.3280029296875 C 10.63397884368896 50.10609817504883 13.36778831481934 45.06945419311523 16.55081176757812 40.35795593261719 C 19.70385932922363 35.69086074829102 23.32493209838867 31.30207443237305 27.31350326538086 27.31350326538086 C 31.30207443237305 23.32493209838867 35.69086074829102 19.70385932922363 40.35795593261719 16.55081176757812 C 45.06945419311523 13.36778831481934 50.10609817504883 10.63397884368896 55.3280029296875 8.425289154052734 C 60.64612197875977 6.175931453704834 66.21145629882812 4.448359966278076 71.869384765625 3.290574312210083 C 77.67564392089844 2.102431535720825 83.65212249755859 1.500002980232239 89.6328125 1.500002980232239 C 95.61350250244141 1.500002980232239 101.5899810791016 2.102431535720825 107.396240234375 3.290574312210083 C 113.0541687011719 4.448359966278076 118.619499206543 6.175931453704834 123.9376220703125 8.425289154052734 C 129.1595306396484 10.63397884368896 134.1961669921875 13.36778831481934 138.9076690673828 16.55081176757812 C 143.5747680664062 19.70385932922363 147.9635467529297 23.32493209838867 151.9521179199219 27.31350326538086 C 155.9406890869141 31.30207443237305 159.561767578125 35.69086074829102 162.7148132324219 40.35795593261719 C 165.8978424072266 45.06945419311523 168.6316528320312 50.10609817504883 170.84033203125 55.3280029296875 C 173.0896911621094 60.64612197875977 174.8172607421875 66.21145629882812 175.9750518798828 71.869384765625 C 177.1631927490234 77.67564392089844 177.765625 83.65212249755859 177.765625 89.6328125 C 177.765625 95.61350250244141 177.1631927490234 101.5899810791016 175.9750518798828 107.396240234375 C 174.8172607421875 113.0541687011719 173.0896911621094 118.619499206543 170.84033203125 123.9376220703125 C 168.6316528320312 129.1595306396484 165.8978424072266 134.1961669921875 162.7148132324219 138.9076690673828 C 159.561767578125 143.5747680664062 155.9406890869141 147.9635467529297 151.9521179199219 151.9521179199219 C 147.9635467529297 155.9406890869141 143.5747680664062 159.561767578125 138.9076690673828 162.7148132324219 C 134.1961669921875 165.8978424072266 129.1595306396484 168.6316528320312 123.9376220703125 170.84033203125 C 118.619499206543 173.0896911621094 113.0541687011719 174.8172607421875 107.396240234375 175.9750518798828 C 101.5899810791016 177.1631927490234 95.61350250244141 177.765625 89.6328125 177.765625 Z" stroke="none"/>
    <path d="M 89.6328125 2.999984741210938 C 83.75291442871094 2.999984741210938 77.87760925292969 3.592193603515625 72.17008972167969 4.760116577148438 C 66.60916137695312 5.898040771484375 61.13925933837891 7.595993041992188 55.91231536865234 9.806793212890625 C 50.77961730957031 11.97773742675781 45.82888793945312 14.66493225097656 41.19766235351562 17.79373168945312 C 36.60966491699219 20.89334106445312 32.29521179199219 24.45309448242188 28.37416076660156 28.37416076660156 C 24.45309448242188 32.29521179199219 20.89334106445312 36.60966491699219 17.79373168945312 41.19766235351562 C 14.66493225097656 45.82888793945312 11.97773742675781 50.77961730957031 9.806793212890625 55.91231536865234 C 7.595993041992188 61.13925933837891 5.898040771484375 66.60916137695312 4.760116577148438 72.17008972167969 C 3.592193603515625 77.87760925292969 2.999984741210938 83.75291442871094 2.999984741210938 89.6328125 C 2.999984741210938 95.51268768310547 3.592193603515625 101.3880157470703 4.760116577148438 107.0955123901367 C 5.898040771484375 112.6564636230469 7.595993041992188 118.1263580322266 9.806793212890625 123.3532867431641 C 11.97773742675781 128.4859924316406 14.66493225097656 133.4367065429688 17.79373168945312 138.0679321289062 C 20.89334106445312 142.6559448242188 24.45309448242188 146.9703826904297 28.37416076660156 150.8914642333984 C 32.29521179199219 154.8125152587891 36.60966491699219 158.3722686767578 41.19766235351562 161.4718627929688 C 45.82888793945312 164.6006622314453 50.77961730957031 167.2878570556641 55.91231536865234 169.4588165283203 C 61.13925933837891 171.6696166992188 66.60916137695312 173.3675689697266 72.17008972167969 174.5054931640625 C 77.87760925292969 175.6734161376953 83.75291442871094 176.2656097412109 89.6328125 176.2656097412109 C 95.51268768310547 176.2656097412109 101.3880157470703 175.6734161376953 107.0955123901367 174.5054931640625 C 112.6564636230469 173.3675689697266 118.1263580322266 171.6696166992188 123.3532867431641 169.4588165283203 C 128.4859924316406 167.2878570556641 133.4367065429688 164.6006622314453 138.0679321289062 161.4718627929688 C 142.6559448242188 158.3722839355469 146.9703826904297 154.8125152587891 150.8914642333984 150.8914642333984 C 154.8125152587891 146.9703826904297 158.3722839355469 142.6559448242188 161.4718627929688 138.0679321289062 C 164.6006622314453 133.4367065429688 167.2878570556641 128.4859924316406 169.4588165283203 123.3532867431641 C 171.6696166992188 118.1263580322266 173.3675689697266 112.6564636230469 174.5054931640625 107.0955123901367 C 175.6734161376953 101.3880157470703 176.2656097412109 95.51268768310547 176.2656097412109 89.6328125 C 176.2656097412109 83.75291442871094 175.6734161376953 77.87760925292969 174.5054931640625 72.17008972167969 C 173.3675689697266 66.60916137695312 171.6696166992188 61.13925933837891 169.4588165283203 55.91231536865234 C 167.2878570556641 50.77961730957031 164.6006622314453 45.82888793945312 161.4718627929688 41.19766235351562 C 158.3722686767578 36.60966491699219 154.8125152587891 32.29521179199219 150.8914642333984 28.37416076660156 C 146.9703826904297 24.45309448242188 142.6559448242188 20.89334106445312 138.0679321289062 17.79373168945312 C 133.4367065429688 14.66493225097656 128.4859924316406 11.97773742675781 123.3532867431641 9.806793212890625 C 118.1263580322266 7.595993041992188 112.6564636230469 5.898040771484375 107.0955123901367 4.760116577148438 C 101.3880157470703 3.592193603515625 95.51268768310547 2.999984741210938 89.6328125 2.999984741210938 M 89.6328125 -1.52587890625e-05 C 139.1356353759766 -1.52587890625e-05 179.2656097412109 40.12995910644531 179.2656097412109 89.6328125 C 179.2656097412109 139.1356353759766 139.1356353759766 179.2656097412109 89.6328125 179.2656097412109 C 40.12995910644531 179.2656097412109 -1.52587890625e-05 139.1356353759766 -1.52587890625e-05 89.6328125 C -1.52587890625e-05 40.12995910644531 40.12995910644531 -1.52587890625e-05 89.6328125 -1.52587890625e-05 Z" stroke="none" fill="#f0ca4d"/>
  </g>
  <g id="turn-off_icon" data-name="turn-off icon" transform="translate(59.45 54.716)">
    <path id="Path_8" data-name="Path 8" d="M63.339,60.625a2.779,2.779,0,0,0-3.592,1.344,2.561,2.561,0,0,0,1.408,3.43A23.438,23.438,0,0,1,75.89,86.892c0,12.946-10.993,23.443-24.551,23.443S26.787,99.84,26.787,86.892A23.442,23.442,0,0,1,41.517,65.4a2.561,2.561,0,0,0,1.406-3.43,2.779,2.779,0,0,0-3.592-1.343,28.648,28.648,0,0,0-18,26.267c0,15.825,13.434,28.652,30.007,28.652s30.007-12.829,30.007-28.652A28.644,28.644,0,0,0,63.339,60.625Z" transform="translate(-21.331 -53.031)" fill="#f0ca4d" stroke="#0f142f" stroke-width="2"/>
    <path id="Path_9" data-name="Path 9" d="M237.261,28.652a2.6,2.6,0,0,0,2.6-2.6V2.6a2.6,2.6,0,1,0-5.209,0V26.047A2.6,2.6,0,0,0,237.261,28.652Z" transform="translate(-207.245)" fill="#f0ca4d" stroke="#0f142f" stroke-width="1"/>
  </g>
</svg>
